<svg width="30" height="32" viewBox="0 0 30 32" fill="none" xmlns="http://www.w3.org/2000/svg">
<path d="M29.1259 30.8571C28.1661 27.8647 26.2811 25.2544 23.7426 23.4025C21.2037 21.5506 18.1425 20.5527 15.0001 20.5527C11.8577 20.5527 8.79645 21.5506 6.25773 23.4025C3.71903 25.2544 1.83398 27.8647 0.87439 30.8571H29.1259Z" stroke="#EDE5D8" stroke-linecap="round" stroke-linejoin="round"/>
<path d="M14.9999 20.5714C20.3423 20.5714 24.6733 16.2405 24.6733 10.8981C24.6733 5.55571 20.3423 1.22485 14.9999 1.22485C9.65754 1.22485 5.32666 5.55571 5.32666 10.8981C5.32666 16.2405 9.65754 20.5714 14.9999 20.5714Z" stroke="#EDE5D8" stroke-linecap="round" stroke-linejoin="round"/>
<path d="M18.1587 14.6409C18.1587 14.6409 17.3561 16.2202 15.0001 16.2202C12.6441 16.2202 11.8414 14.6409 11.8414 14.6409" stroke="#EDE5D8" stroke-linecap="round" stroke-linejoin="round"/>
<path d="M24.498 9.0564C24.4763 9.05654 24.4548 9.05661 24.4333 9.05661C21.6215 9.05661 19.0971 7.82646 17.3688 5.875C15.6405 7.8265 13.1161 9.05667 10.3043 9.05667C8.67153 9.05667 7.13562 8.64184 5.79626 7.91183C7.05464 4.03089 10.6995 1.22485 14.9998 1.22485C19.7124 1.22485 23.6379 4.59484 24.498 9.0564Z" stroke="#EDE5D8" stroke-linecap="round" stroke-linejoin="round"/>
</svg>
