<svg width="52" height="52" viewBox="0 0 52 52" fill="none" xmlns="http://www.w3.org/2000/svg">
<path d="M50 27.5C50.8284 27.5 51.5 26.8284 51.5 26C51.5 25.1716 50.8284 24.5 50 24.5V27.5ZM20.1441 51.0654C20.7325 51.6485 21.6822 51.6443 22.2654 51.0559C22.8485 50.4675 22.8443 49.5178 22.2559 48.9346L20.1441 51.0654ZM12.7377 41.6129L11.6818 42.6783H11.6818L12.7377 41.6129ZM12.7377 10.3871L11.6818 9.3217L12.7377 10.3871ZM22.2559 3.06538C22.8443 2.48222 22.8486 1.53248 22.2654 0.944083C21.6822 0.355689 20.7325 0.351451 20.1441 0.934618L22.2559 3.06538ZM2.09547 27.504L0.607509 27.6937L0.607509 27.6937L2.09547 27.504ZM2.09547 24.496L0.607509 24.3063L0.607509 24.3063L2.09547 24.496ZM50 24.5H6.8V27.5H50V24.5ZM22.2559 48.9346L13.7937 40.5475L11.6818 42.6783L20.1441 51.0654L22.2559 48.9346ZM13.7937 11.4525L22.2559 3.06538L20.1441 0.934618L11.6818 9.3217L13.7937 11.4525ZM13.7937 40.5475C10.3944 37.1784 7.93653 34.7392 6.2503 32.6396C4.58306 30.5635 3.79388 28.9654 3.58343 27.3143L0.607509 27.6937C0.916616 30.1188 2.07433 32.2308 3.91122 34.5181C5.72911 36.7817 8.33264 39.3589 11.6818 42.6783L13.7937 40.5475ZM11.6818 9.3217C8.33264 12.6411 5.72912 15.2183 3.91122 17.4819C2.07433 19.7692 0.916617 21.8813 0.607509 24.3063L3.58343 24.6857C3.79388 23.0346 4.58306 21.4365 6.2503 19.3604C7.93654 17.2608 10.3944 14.8216 13.7937 11.4525L11.6818 9.3217ZM3.58343 27.3143C3.52781 26.8779 3.5 26.439 3.5 26H0.5C0.5 26.5657 0.535838 27.1314 0.607509 27.6937L3.58343 27.3143ZM3.5 26C3.5 25.561 3.52781 25.1221 3.58343 24.6857L0.607509 24.3063C0.535838 24.8686 0.5 25.4343 0.5 26H3.5ZM6.8 24.5H2V27.5H6.8V24.5Z" fill="#1E1A1A"/>
</svg>
