<svg width="48" height="48" viewBox="0 0 48 48" fill="none" xmlns="http://www.w3.org/2000/svg">
<path fill-rule="evenodd" clip-rule="evenodd" d="M0 24C0 36.5113 9.5735 46.7866 21.7946 47.9H26.2054C37.6998 46.8528 46.8521 37.7009 47.8999 26.2067V21.7933C46.7859 9.5728 36.5109 0 24 0C10.7452 0 0 10.7452 0 24ZM38.1441 15.1435C39.1942 15.1435 39.4313 15.6855 39.1942 16.4307C38.8242 18.1387 35.7511 22.6692 34.7993 24.0725C34.6184 24.3391 34.5141 24.4928 34.5196 24.4928C34.1469 25.1026 34.0114 25.3736 34.5196 26.051C34.7032 26.3015 35.0927 26.6837 35.5379 27.1205C35.9957 27.5698 36.5124 28.0768 36.9246 28.5577C38.4151 30.2515 39.5668 31.6742 39.8717 32.6565C40.1427 33.6389 39.6685 34.147 38.6522 34.147H35.1632C34.2385 34.147 33.7619 33.616 32.7461 32.4843C32.3106 31.9991 31.776 31.4034 31.0644 30.6918C28.998 28.6932 28.0834 28.4223 27.5753 28.4223C26.8639 28.4223 26.6607 28.5916 26.6607 29.6079V32.7582C26.6607 33.605 26.3897 34.1131 24.154 34.1131C20.4617 34.1131 16.3629 31.8774 13.4836 27.7109C9.14764 21.6135 7.96204 17.0066 7.96204 16.092C7.96204 15.5839 8.13141 15.1096 9.14764 15.1096H12.6706C13.5513 15.1096 13.8901 15.4822 14.2288 16.4646C15.9564 21.4441 18.8357 25.8139 20.0213 25.8139C20.4617 25.8139 20.6649 25.6107 20.6649 24.4928V19.3439C20.5813 17.8804 20.0718 17.2427 19.694 16.7699C19.4597 16.4766 19.2761 16.2468 19.2761 15.9226C19.2761 15.5161 19.6148 15.1096 20.1568 15.1096H25.6445C26.3897 15.1096 26.6607 15.5161 26.6607 16.3968V23.3411C26.6607 24.0863 26.9656 24.3573 27.2027 24.3573C27.6431 24.3573 28.0157 24.0863 28.8287 23.2733C31.3354 20.4618 33.1307 16.1259 33.1307 16.1259C33.3678 15.6177 33.7743 15.1435 34.655 15.1435H38.1441Z" fill="#DD9F72"/>
</svg>
