<svg width="52" height="52" viewBox="0 0 52 52" fill="none" xmlns="http://www.w3.org/2000/svg">
<path d="M2 24.5C1.17157 24.5 0.5 25.1716 0.5 26C0.5 26.8284 1.17157 27.5 2 27.5L2 24.5ZM45.2 26V24.5V26ZM31.8559 0.934618C31.2675 0.351451 30.3178 0.355688 29.7346 0.944082C29.1515 1.53248 29.1557 2.48221 29.7441 3.06538L31.8559 0.934618ZM39.2623 10.3871L38.2063 11.4525L39.2623 10.3871ZM39.2623 41.6129L38.2063 40.5475L39.2623 41.6129ZM29.7441 48.9346C29.1557 49.5178 29.1515 50.4675 29.7346 51.0559C30.3178 51.6443 31.2675 51.6485 31.8559 51.0654L29.7441 48.9346ZM49.9045 24.496L51.3925 24.3063V24.3063L49.9045 24.496ZM49.9045 27.504L51.3925 27.6937V27.6937L49.9045 27.504ZM50 26H51.5H50ZM2 27.5L45.2 27.5V24.5L2 24.5L2 27.5ZM29.7441 3.06538L38.2063 11.4525L40.3182 9.32169L31.8559 0.934618L29.7441 3.06538ZM38.2063 40.5475L29.7441 48.9346L31.8559 51.0654L40.3182 42.6783L38.2063 40.5475ZM38.2063 11.4525C41.6056 14.8216 44.0635 17.2608 45.7497 19.3604C47.4169 21.4365 48.2061 23.0346 48.4166 24.6857L51.3925 24.3063C51.0834 21.8812 49.9257 19.7692 48.0888 17.4819C46.2709 15.2183 43.6674 12.6411 40.3182 9.32169L38.2063 11.4525ZM40.3182 42.6783C43.6674 39.3589 46.2709 36.7817 48.0888 34.5181C49.9257 32.2308 51.0834 30.1188 51.3925 27.6937L48.4166 27.3143C48.2061 28.9654 47.4169 30.5635 45.7497 32.6396C44.0635 34.7392 41.6056 37.1784 38.2063 40.5475L40.3182 42.6783ZM48.4166 24.6857C48.4722 25.122 48.5 25.561 48.5 26H51.5C51.5 25.4343 51.4642 24.8687 51.3925 24.3063L48.4166 24.6857ZM48.5 26C48.5 26.439 48.4722 26.878 48.4166 27.3143L51.3925 27.6937C51.4642 27.1313 51.5 26.5657 51.5 26H48.5ZM45.2 27.5H50V24.5H45.2V27.5Z" fill="#1E1A1A"/>
</svg>
